<?xml version="1.0" standalone="no"?>
<!DOCTYPE svg PUBLIC "-//W3C//DTD SVG 20010904//EN"
 "http://www.w3.org/TR/2001/REC-SVG-20010904/DTD/svg10.dtd">
<svg version="1.0" xmlns="http://www.w3.org/2000/svg"
 width="484.000000pt" height="483.000000pt" viewBox="0 0 484.000000 483.000000"
 preserveAspectRatio="xMidYMid meet">
<metadata>
Created by potrace 1.16, written by Peter Selinger 2001-2019
</metadata>
<g transform="translate(0.000000,483.000000) scale(0.100000,-0.100000)"
fill="#0ca789" stroke="none">
<path fill="#0ca789" stroke="none" d="M2343 4503 c-93 -145 -133 -273 -133
-424 0 -264 144 -520 433 -766 l37 -33 -10 -172 c-6 -95 -13 -189 -16 -208
l-6 -34 -19 53 c-25 72 -79 176 -134 263 -114 175 -278 297 -460 343 -83 21
-243 23 -330 6 -116 -24 -235 -63 -235 -78 0 -8 9 -61 20 -116 25 -120 85
-252 155 -339 94 -116 264 -216 455 -265 97 -25 121 -27 317 -27 207 -1 212
-2 208 -21 -2 -11 -14 -69 -26 -129 -26 -136 -70 -293 -110 -397 l-31 -79 -47
72 c-124 189 -307 325 -521 385 -93 25 -370 26 -490 0 -78 -17 -305 -89 -316
-100 -9 -9 102 -230 151 -303 145 -212 321 -343 524 -390 114 -25 326 -16 446
21 50 15 99 30 109 33 18 5 17 2 -5 -38 -94 -170 -266 -383 -404 -500 -224
-190 -447 -287 -713 -310 -63 -6 -122 -15 -133 -20 -48 -26 -53 -98 -10 -141
34 -33 60 -36 206 -18 401 49 770 281 1058 667 68 92 205 313 220 357 2 5 53
-14 113 -42 180 -84 296 -117 468 -132 364 -32 633 127 816 481 l61 117 -48
36 c-67 50 -235 132 -313 152 -100 27 -310 24 -415 -6 -166 -47 -336 -143
-482 -270 l-83 -72 30 83 c37 105 106 375 115 449 4 31 10 61 14 67 5 8 33 8
101 1 243 -26 501 29 670 142 178 119 275 286 315 543 23 148 24 146 -60 168
-38 10 -119 21 -180 24 -92 5 -125 3 -200 -15 -218 -53 -400 -186 -551 -406
l-52 -76 2 138 c3 129 5 143 34 215 88 216 110 471 56 648 -52 171 -172 319
-341 418 -45 27 -207 102 -219 102 -2 0 -21 -26 -41 -57z"/>
</g>
</svg>
